<mxfile host="app.diagrams.net" modified="2023-12-02T22:25:06.509Z" agent="Mozilla/5.0 (X11; Linux x86_64) AppleWebKit/537.36 (KHTML, like Gecko) Chrome/117.0.0.0 Safari/537.36" etag="NvIjbgT6d8XrKheNnUH2" version="22.1.5" type="device">
  <diagram name="Strona-1" id="Wa6BFlck-FOrG3PqAyhZ">
    <mxGraphModel dx="1434" dy="837" grid="1" gridSize="10" guides="1" tooltips="1" connect="1" arrows="1" fold="1" page="1" pageScale="1" pageWidth="827" pageHeight="1169" math="0" shadow="0">
      <root>
        <mxCell id="0" />
        <mxCell id="1" parent="0" />
        <mxCell id="CPtMA0ndq-gtlwL2n12L-1" value="Left Shift&lt;br&gt;(shift)" style="rounded=0;whiteSpace=wrap;html=1;" vertex="1" parent="1">
          <mxGeometry x="230" y="160" width="80" height="40" as="geometry" />
        </mxCell>
        <mxCell id="CPtMA0ndq-gtlwL2n12L-2" value="Compare&lt;br&gt;(compare)" style="rounded=0;whiteSpace=wrap;html=1;" vertex="1" parent="1">
          <mxGeometry x="230" y="320" width="80" height="40" as="geometry" />
        </mxCell>
        <mxCell id="CPtMA0ndq-gtlwL2n12L-3" value="Bit Change&lt;br&gt;(bit_change)" style="rounded=0;whiteSpace=wrap;html=1;" vertex="1" parent="1">
          <mxGeometry x="230" y="240" width="80" height="40" as="geometry" />
        </mxCell>
        <mxCell id="CPtMA0ndq-gtlwL2n12L-4" value="U2 to SM&lt;br&gt;(conversion)" style="rounded=0;whiteSpace=wrap;html=1;" vertex="1" parent="1">
          <mxGeometry x="230" y="80" width="80" height="40" as="geometry" />
        </mxCell>
        <mxCell id="CPtMA0ndq-gtlwL2n12L-5" value="MUX" style="rounded=0;whiteSpace=wrap;html=1;" vertex="1" parent="1">
          <mxGeometry x="430" y="80" width="80" height="160" as="geometry" />
        </mxCell>
        <mxCell id="CPtMA0ndq-gtlwL2n12L-6" value="" style="endArrow=none;html=1;rounded=0;entryX=1;entryY=0.5;entryDx=0;entryDy=0;exitX=0;exitY=1;exitDx=0;exitDy=0;" edge="1" parent="1" source="CPtMA0ndq-gtlwL2n12L-5" target="CPtMA0ndq-gtlwL2n12L-5">
          <mxGeometry width="50" height="50" relative="1" as="geometry">
            <mxPoint x="450" y="260" as="sourcePoint" />
            <mxPoint x="500" y="210" as="targetPoint" />
            <Array as="points" />
          </mxGeometry>
        </mxCell>
        <mxCell id="CPtMA0ndq-gtlwL2n12L-7" value="" style="endArrow=none;html=1;rounded=0;entryX=1;entryY=0.5;entryDx=0;entryDy=0;exitX=0;exitY=0;exitDx=0;exitDy=0;" edge="1" parent="1" source="CPtMA0ndq-gtlwL2n12L-5" target="CPtMA0ndq-gtlwL2n12L-5">
          <mxGeometry width="50" height="50" relative="1" as="geometry">
            <mxPoint x="450" y="260" as="sourcePoint" />
            <mxPoint x="500" y="210" as="targetPoint" />
          </mxGeometry>
        </mxCell>
        <mxCell id="CPtMA0ndq-gtlwL2n12L-8" value="" style="endArrow=none;html=1;rounded=0;exitX=1;exitY=0.5;exitDx=0;exitDy=0;entryX=0;entryY=0.126;entryDx=0;entryDy=0;entryPerimeter=0;" edge="1" parent="1" source="CPtMA0ndq-gtlwL2n12L-4" target="CPtMA0ndq-gtlwL2n12L-5">
          <mxGeometry width="50" height="50" relative="1" as="geometry">
            <mxPoint x="450" y="260" as="sourcePoint" />
            <mxPoint x="500" y="210" as="targetPoint" />
          </mxGeometry>
        </mxCell>
        <mxCell id="CPtMA0ndq-gtlwL2n12L-74" value="&lt;font style=&quot;font-size: 8px;&quot;&gt;out_conversion&lt;/font&gt;" style="edgeLabel;html=1;align=center;verticalAlign=middle;resizable=0;points=[];" vertex="1" connectable="0" parent="CPtMA0ndq-gtlwL2n12L-8">
          <mxGeometry x="-0.4583" y="-2" relative="1" as="geometry">
            <mxPoint x="28" y="-12" as="offset" />
          </mxGeometry>
        </mxCell>
        <mxCell id="CPtMA0ndq-gtlwL2n12L-9" value="" style="endArrow=none;html=1;rounded=0;exitX=1;exitY=0.5;exitDx=0;exitDy=0;entryX=0.008;entryY=0.373;entryDx=0;entryDy=0;entryPerimeter=0;" edge="1" parent="1" source="CPtMA0ndq-gtlwL2n12L-1" target="CPtMA0ndq-gtlwL2n12L-5">
          <mxGeometry width="50" height="50" relative="1" as="geometry">
            <mxPoint x="380" y="230" as="sourcePoint" />
            <mxPoint x="430" y="180" as="targetPoint" />
            <Array as="points">
              <mxPoint x="360" y="180" />
              <mxPoint x="360" y="140" />
            </Array>
          </mxGeometry>
        </mxCell>
        <mxCell id="CPtMA0ndq-gtlwL2n12L-75" value="&lt;font style=&quot;font-size: 8px;&quot;&gt;out_shift&lt;/font&gt;" style="edgeLabel;html=1;align=center;verticalAlign=middle;resizable=0;points=[];" vertex="1" connectable="0" parent="CPtMA0ndq-gtlwL2n12L-9">
          <mxGeometry x="0.4419" y="1" relative="1" as="geometry">
            <mxPoint x="4" y="-9" as="offset" />
          </mxGeometry>
        </mxCell>
        <mxCell id="CPtMA0ndq-gtlwL2n12L-10" value="" style="endArrow=none;html=1;rounded=0;exitX=1;exitY=0.5;exitDx=0;exitDy=0;entryX=-0.022;entryY=0.625;entryDx=0;entryDy=0;entryPerimeter=0;" edge="1" parent="1" source="CPtMA0ndq-gtlwL2n12L-3" target="CPtMA0ndq-gtlwL2n12L-5">
          <mxGeometry width="50" height="50" relative="1" as="geometry">
            <mxPoint x="350" y="300" as="sourcePoint" />
            <mxPoint x="400" y="250" as="targetPoint" />
            <Array as="points">
              <mxPoint x="370" y="260" />
              <mxPoint x="370" y="180" />
            </Array>
          </mxGeometry>
        </mxCell>
        <mxCell id="CPtMA0ndq-gtlwL2n12L-76" value="&lt;font style=&quot;font-size: 8px;&quot;&gt;out_bit_change&lt;/font&gt;" style="edgeLabel;html=1;align=center;verticalAlign=middle;resizable=0;points=[];" vertex="1" connectable="0" parent="CPtMA0ndq-gtlwL2n12L-10">
          <mxGeometry x="0.5573" y="1" relative="1" as="geometry">
            <mxPoint x="14" y="-9" as="offset" />
          </mxGeometry>
        </mxCell>
        <mxCell id="CPtMA0ndq-gtlwL2n12L-11" value="" style="endArrow=none;html=1;rounded=0;exitX=1;exitY=0.5;exitDx=0;exitDy=0;entryX=-0.022;entryY=0.875;entryDx=0;entryDy=0;entryPerimeter=0;" edge="1" parent="1" source="CPtMA0ndq-gtlwL2n12L-2" target="CPtMA0ndq-gtlwL2n12L-5">
          <mxGeometry width="50" height="50" relative="1" as="geometry">
            <mxPoint x="340" y="290" as="sourcePoint" />
            <mxPoint x="390" y="240" as="targetPoint" />
            <Array as="points">
              <mxPoint x="380" y="340" />
              <mxPoint x="380" y="220" />
            </Array>
          </mxGeometry>
        </mxCell>
        <mxCell id="CPtMA0ndq-gtlwL2n12L-77" value="&lt;font style=&quot;font-size: 8px;&quot;&gt;out_compare&lt;/font&gt;" style="edgeLabel;html=1;align=center;verticalAlign=middle;resizable=0;points=[];" vertex="1" connectable="0" parent="CPtMA0ndq-gtlwL2n12L-11">
          <mxGeometry x="0.7454" relative="1" as="geometry">
            <mxPoint x="2" y="-10" as="offset" />
          </mxGeometry>
        </mxCell>
        <mxCell id="CPtMA0ndq-gtlwL2n12L-12" value="" style="rounded=0;whiteSpace=wrap;html=1;" vertex="1" parent="1">
          <mxGeometry x="650" y="140" width="60" height="80" as="geometry" />
        </mxCell>
        <mxCell id="CPtMA0ndq-gtlwL2n12L-13" value="" style="endArrow=none;html=1;rounded=0;entryX=0;entryY=0.25;entryDx=0;entryDy=0;" edge="1" parent="1" target="CPtMA0ndq-gtlwL2n12L-12">
          <mxGeometry width="50" height="50" relative="1" as="geometry">
            <mxPoint x="510" y="160" as="sourcePoint" />
            <mxPoint x="720" y="150" as="targetPoint" />
          </mxGeometry>
        </mxCell>
        <mxCell id="CPtMA0ndq-gtlwL2n12L-78" value="&lt;font style=&quot;font-size: 8px;&quot;&gt;out_ mux&lt;/font&gt;" style="edgeLabel;html=1;align=center;verticalAlign=middle;resizable=0;points=[];" vertex="1" connectable="0" parent="CPtMA0ndq-gtlwL2n12L-13">
          <mxGeometry x="-0.5103" relative="1" as="geometry">
            <mxPoint x="56" y="-10" as="offset" />
          </mxGeometry>
        </mxCell>
        <mxCell id="CPtMA0ndq-gtlwL2n12L-14" value="&amp;nbsp;D" style="text;html=1;strokeColor=none;fillColor=none;align=center;verticalAlign=middle;whiteSpace=wrap;rounded=0;" vertex="1" parent="1">
          <mxGeometry x="625" y="145" width="60" height="30" as="geometry" />
        </mxCell>
        <mxCell id="CPtMA0ndq-gtlwL2n12L-15" value="Q" style="text;html=1;strokeColor=none;fillColor=none;align=center;verticalAlign=middle;whiteSpace=wrap;rounded=0;" vertex="1" parent="1">
          <mxGeometry x="670" y="145" width="60" height="30" as="geometry" />
        </mxCell>
        <mxCell id="CPtMA0ndq-gtlwL2n12L-17" value="" style="endArrow=none;html=1;rounded=0;exitX=0;exitY=0.75;exitDx=0;exitDy=0;fillColor=#d5e8d4;strokeColor=#82b366;" edge="1" parent="1" source="CPtMA0ndq-gtlwL2n12L-12">
          <mxGeometry width="50" height="50" relative="1" as="geometry">
            <mxPoint x="700" y="260" as="sourcePoint" />
            <mxPoint x="80" y="380" as="targetPoint" />
            <Array as="points">
              <mxPoint x="610" y="200" />
              <mxPoint x="610" y="380" />
            </Array>
          </mxGeometry>
        </mxCell>
        <mxCell id="CPtMA0ndq-gtlwL2n12L-20" value="&lt;font style=&quot;font-size: 8px;&quot;&gt;RST&lt;/font&gt;" style="text;html=1;strokeColor=none;fillColor=none;align=center;verticalAlign=middle;whiteSpace=wrap;rounded=0;" vertex="1" parent="1">
          <mxGeometry x="675" y="210" width="10" as="geometry" />
        </mxCell>
        <mxCell id="CPtMA0ndq-gtlwL2n12L-21" value="" style="endArrow=none;html=1;rounded=0;fillColor=#ffe6cc;strokeColor=#d79b00;" edge="1" parent="1">
          <mxGeometry width="50" height="50" relative="1" as="geometry">
            <mxPoint x="150" y="90" as="sourcePoint" />
            <mxPoint x="150" y="330" as="targetPoint" />
          </mxGeometry>
        </mxCell>
        <mxCell id="CPtMA0ndq-gtlwL2n12L-22" value="" style="endArrow=none;html=1;rounded=0;fillColor=#dae8fc;strokeColor=#6c8ebf;" edge="1" parent="1">
          <mxGeometry width="50" height="50" relative="1" as="geometry">
            <mxPoint x="170" y="110" as="sourcePoint" />
            <mxPoint x="170" y="350" as="targetPoint" />
          </mxGeometry>
        </mxCell>
        <mxCell id="CPtMA0ndq-gtlwL2n12L-23" value="" style="endArrow=none;html=1;rounded=0;entryX=0;entryY=0.25;entryDx=0;entryDy=0;fillColor=#ffe6cc;strokeColor=#d79b00;" edge="1" parent="1" target="CPtMA0ndq-gtlwL2n12L-4">
          <mxGeometry width="50" height="50" relative="1" as="geometry">
            <mxPoint x="150" y="90" as="sourcePoint" />
            <mxPoint x="250" y="80" as="targetPoint" />
          </mxGeometry>
        </mxCell>
        <mxCell id="CPtMA0ndq-gtlwL2n12L-24" value="" style="endArrow=none;html=1;rounded=0;entryX=0;entryY=0.75;entryDx=0;entryDy=0;fillColor=#dae8fc;strokeColor=#6c8ebf;" edge="1" parent="1" target="CPtMA0ndq-gtlwL2n12L-4">
          <mxGeometry width="50" height="50" relative="1" as="geometry">
            <mxPoint x="170" y="110" as="sourcePoint" />
            <mxPoint x="250" y="80" as="targetPoint" />
          </mxGeometry>
        </mxCell>
        <mxCell id="CPtMA0ndq-gtlwL2n12L-25" value="" style="endArrow=none;html=1;rounded=0;entryX=0;entryY=0.25;entryDx=0;entryDy=0;fillColor=#ffe6cc;strokeColor=#d79b00;" edge="1" parent="1">
          <mxGeometry width="50" height="50" relative="1" as="geometry">
            <mxPoint x="150" y="169.76999999999998" as="sourcePoint" />
            <mxPoint x="230" y="169.76999999999998" as="targetPoint" />
          </mxGeometry>
        </mxCell>
        <mxCell id="CPtMA0ndq-gtlwL2n12L-26" value="" style="endArrow=none;html=1;rounded=0;entryX=0;entryY=0.75;entryDx=0;entryDy=0;fillColor=#dae8fc;strokeColor=#6c8ebf;" edge="1" parent="1">
          <mxGeometry width="50" height="50" relative="1" as="geometry">
            <mxPoint x="170" y="189.76999999999998" as="sourcePoint" />
            <mxPoint x="230" y="189.76999999999998" as="targetPoint" />
          </mxGeometry>
        </mxCell>
        <mxCell id="CPtMA0ndq-gtlwL2n12L-27" value="" style="endArrow=none;html=1;rounded=0;entryX=0;entryY=0.25;entryDx=0;entryDy=0;fillColor=#ffe6cc;strokeColor=#d79b00;" edge="1" parent="1">
          <mxGeometry width="50" height="50" relative="1" as="geometry">
            <mxPoint x="150" y="250" as="sourcePoint" />
            <mxPoint x="230" y="250" as="targetPoint" />
          </mxGeometry>
        </mxCell>
        <mxCell id="CPtMA0ndq-gtlwL2n12L-28" value="" style="endArrow=none;html=1;rounded=0;entryX=0;entryY=0.75;entryDx=0;entryDy=0;fillColor=#dae8fc;strokeColor=#6c8ebf;" edge="1" parent="1">
          <mxGeometry width="50" height="50" relative="1" as="geometry">
            <mxPoint x="170" y="270" as="sourcePoint" />
            <mxPoint x="230" y="270" as="targetPoint" />
          </mxGeometry>
        </mxCell>
        <mxCell id="CPtMA0ndq-gtlwL2n12L-29" value="" style="endArrow=none;html=1;rounded=0;entryX=0;entryY=0.25;entryDx=0;entryDy=0;fillColor=#ffe6cc;strokeColor=#d79b00;" edge="1" parent="1">
          <mxGeometry width="50" height="50" relative="1" as="geometry">
            <mxPoint x="150" y="329.77" as="sourcePoint" />
            <mxPoint x="230" y="329.77" as="targetPoint" />
          </mxGeometry>
        </mxCell>
        <mxCell id="CPtMA0ndq-gtlwL2n12L-30" value="" style="endArrow=none;html=1;rounded=0;entryX=0;entryY=0.75;entryDx=0;entryDy=0;fillColor=#dae8fc;strokeColor=#6c8ebf;" edge="1" parent="1">
          <mxGeometry width="50" height="50" relative="1" as="geometry">
            <mxPoint x="170" y="349.77" as="sourcePoint" />
            <mxPoint x="230" y="349.77" as="targetPoint" />
          </mxGeometry>
        </mxCell>
        <mxCell id="CPtMA0ndq-gtlwL2n12L-32" value="" style="endArrow=none;html=1;rounded=0;exitX=0.503;exitY=1.035;exitDx=0;exitDy=0;exitPerimeter=0;fillColor=#f8cecc;strokeColor=#b85450;entryX=0;entryY=0.5;entryDx=0;entryDy=0;" edge="1" parent="1" source="CPtMA0ndq-gtlwL2n12L-4" target="CPtMA0ndq-gtlwL2n12L-46">
          <mxGeometry width="50" height="50" relative="1" as="geometry">
            <mxPoint x="270" y="140" as="sourcePoint" />
            <mxPoint x="340" y="280" as="targetPoint" />
            <Array as="points">
              <mxPoint x="270" y="140" />
              <mxPoint x="340" y="140" />
              <mxPoint x="340" y="300" />
            </Array>
          </mxGeometry>
        </mxCell>
        <mxCell id="CPtMA0ndq-gtlwL2n12L-70" value="&lt;font style=&quot;font-size: 6px;&quot;&gt;err_conversion&lt;/font&gt;" style="edgeLabel;html=1;align=center;verticalAlign=middle;resizable=0;points=[];" vertex="1" connectable="0" parent="CPtMA0ndq-gtlwL2n12L-32">
          <mxGeometry x="-0.706" y="1" relative="1" as="geometry">
            <mxPoint y="-9" as="offset" />
          </mxGeometry>
        </mxCell>
        <mxCell id="CPtMA0ndq-gtlwL2n12L-33" value="" style="endArrow=none;html=1;rounded=0;exitX=0.503;exitY=1.035;exitDx=0;exitDy=0;exitPerimeter=0;fillColor=#f8cecc;strokeColor=#b85450;entryX=-0.016;entryY=0.644;entryDx=0;entryDy=0;entryPerimeter=0;" edge="1" parent="1" target="CPtMA0ndq-gtlwL2n12L-46">
          <mxGeometry width="50" height="50" relative="1" as="geometry">
            <mxPoint x="270" y="200" as="sourcePoint" />
            <mxPoint x="330" y="300" as="targetPoint" />
            <Array as="points">
              <mxPoint x="270" y="220" />
              <mxPoint x="330" y="220" />
              <mxPoint x="330" y="310" />
              <mxPoint x="360" y="310" />
            </Array>
          </mxGeometry>
        </mxCell>
        <mxCell id="CPtMA0ndq-gtlwL2n12L-72" value="&lt;font style=&quot;font-size: 6px;&quot;&gt;err_left_shift&lt;/font&gt;" style="edgeLabel;html=1;align=center;verticalAlign=middle;resizable=0;points=[];" vertex="1" connectable="0" parent="CPtMA0ndq-gtlwL2n12L-33">
          <mxGeometry x="-0.6948" relative="1" as="geometry">
            <mxPoint x="9" y="-10" as="offset" />
          </mxGeometry>
        </mxCell>
        <mxCell id="CPtMA0ndq-gtlwL2n12L-34" value="" style="endArrow=none;html=1;rounded=0;exitX=0.503;exitY=1.035;exitDx=0;exitDy=0;exitPerimeter=0;fillColor=#f8cecc;strokeColor=#b85450;entryX=0;entryY=0.786;entryDx=0;entryDy=0;entryPerimeter=0;" edge="1" parent="1" target="CPtMA0ndq-gtlwL2n12L-46">
          <mxGeometry width="50" height="50" relative="1" as="geometry">
            <mxPoint x="270" y="280" as="sourcePoint" />
            <mxPoint x="320" y="320" as="targetPoint" />
            <Array as="points">
              <mxPoint x="270" y="300" />
              <mxPoint x="320" y="300" />
              <mxPoint x="320" y="320" />
            </Array>
          </mxGeometry>
        </mxCell>
        <mxCell id="CPtMA0ndq-gtlwL2n12L-73" value="&lt;font style=&quot;font-size: 6px;&quot;&gt;err_bit_change&lt;/font&gt;" style="edgeLabel;html=1;align=center;verticalAlign=middle;resizable=0;points=[];" vertex="1" connectable="0" parent="CPtMA0ndq-gtlwL2n12L-34">
          <mxGeometry x="-0.555" y="1" relative="1" as="geometry">
            <mxPoint y="-9" as="offset" />
          </mxGeometry>
        </mxCell>
        <mxCell id="CPtMA0ndq-gtlwL2n12L-36" value="&lt;font style=&quot;font-size: 8px;&quot;&gt;CLK&lt;/font&gt;" style="text;html=1;strokeColor=none;fillColor=none;align=center;verticalAlign=middle;whiteSpace=wrap;rounded=0;" vertex="1" parent="1">
          <mxGeometry x="645" y="190" width="30" height="20" as="geometry" />
        </mxCell>
        <mxCell id="CPtMA0ndq-gtlwL2n12L-41" value="" style="rounded=0;whiteSpace=wrap;html=1;" vertex="1" parent="1">
          <mxGeometry x="650" y="260" width="60" height="80" as="geometry" />
        </mxCell>
        <mxCell id="CPtMA0ndq-gtlwL2n12L-42" value="&amp;nbsp;D" style="text;html=1;strokeColor=none;fillColor=none;align=center;verticalAlign=middle;whiteSpace=wrap;rounded=0;" vertex="1" parent="1">
          <mxGeometry x="650" y="265" width="10" height="30" as="geometry" />
        </mxCell>
        <mxCell id="CPtMA0ndq-gtlwL2n12L-43" value="Q" style="text;html=1;strokeColor=none;fillColor=none;align=center;verticalAlign=middle;whiteSpace=wrap;rounded=0;" vertex="1" parent="1">
          <mxGeometry x="690" y="265" width="20" height="30" as="geometry" />
        </mxCell>
        <mxCell id="CPtMA0ndq-gtlwL2n12L-44" value="&lt;font style=&quot;font-size: 8px;&quot;&gt;RST&lt;/font&gt;" style="text;html=1;strokeColor=none;fillColor=none;align=center;verticalAlign=middle;whiteSpace=wrap;rounded=0;" vertex="1" parent="1">
          <mxGeometry x="675" y="330" width="10" as="geometry" />
        </mxCell>
        <mxCell id="CPtMA0ndq-gtlwL2n12L-45" value="&lt;font style=&quot;font-size: 8px;&quot;&gt;CLK&lt;/font&gt;" style="text;html=1;strokeColor=none;fillColor=none;align=center;verticalAlign=middle;whiteSpace=wrap;rounded=0;" vertex="1" parent="1">
          <mxGeometry x="650" y="310" width="20" height="20" as="geometry" />
        </mxCell>
        <mxCell id="CPtMA0ndq-gtlwL2n12L-46" value="" style="rounded=0;whiteSpace=wrap;html=1;" vertex="1" parent="1">
          <mxGeometry x="430" y="265" width="80" height="70" as="geometry" />
        </mxCell>
        <mxCell id="CPtMA0ndq-gtlwL2n12L-49" value="" style="endArrow=none;html=1;rounded=0;entryX=0;entryY=0.5;entryDx=0;entryDy=0;" edge="1" parent="1" target="CPtMA0ndq-gtlwL2n12L-42">
          <mxGeometry width="50" height="50" relative="1" as="geometry">
            <mxPoint x="510" y="300" as="sourcePoint" />
            <mxPoint x="590" y="320" as="targetPoint" />
            <Array as="points">
              <mxPoint x="550" y="300" />
              <mxPoint x="550" y="280" />
            </Array>
          </mxGeometry>
        </mxCell>
        <mxCell id="CPtMA0ndq-gtlwL2n12L-66" value="info" style="edgeLabel;html=1;align=center;verticalAlign=middle;resizable=0;points=[];" vertex="1" connectable="0" parent="CPtMA0ndq-gtlwL2n12L-49">
          <mxGeometry x="-0.0243" y="1" relative="1" as="geometry">
            <mxPoint y="-9" as="offset" />
          </mxGeometry>
        </mxCell>
        <mxCell id="CPtMA0ndq-gtlwL2n12L-50" value="&lt;font style=&quot;font-size: 11px;&quot;&gt;&amp;amp;&lt;br&gt;(always_comb)&lt;/font&gt;" style="text;html=1;strokeColor=none;fillColor=none;align=center;verticalAlign=middle;whiteSpace=wrap;rounded=0;" vertex="1" parent="1">
          <mxGeometry x="440" y="285" width="60" height="30" as="geometry" />
        </mxCell>
        <mxCell id="CPtMA0ndq-gtlwL2n12L-51" value="" style="endArrow=none;html=1;rounded=0;entryX=0;entryY=0.5;entryDx=0;entryDy=0;fillColor=#d5e8d4;strokeColor=#82b366;" edge="1" parent="1" target="CPtMA0ndq-gtlwL2n12L-45">
          <mxGeometry width="50" height="50" relative="1" as="geometry">
            <mxPoint x="610" y="320" as="sourcePoint" />
            <mxPoint x="610" y="330" as="targetPoint" />
          </mxGeometry>
        </mxCell>
        <mxCell id="CPtMA0ndq-gtlwL2n12L-52" value="" style="endArrow=none;html=1;rounded=0;fillColor=#ffcccc;strokeColor=#FF6666;entryX=0.5;entryY=1;entryDx=0;entryDy=0;" edge="1" parent="1" target="CPtMA0ndq-gtlwL2n12L-53">
          <mxGeometry width="50" height="50" relative="1" as="geometry">
            <mxPoint x="80" y="390" as="sourcePoint" />
            <mxPoint x="675" y="230" as="targetPoint" />
            <Array as="points">
              <mxPoint x="470" y="390" />
              <mxPoint x="620" y="390" />
              <mxPoint x="620" y="240" />
              <mxPoint x="680" y="240" />
            </Array>
          </mxGeometry>
        </mxCell>
        <mxCell id="CPtMA0ndq-gtlwL2n12L-84" value="i_rsn" style="edgeLabel;html=1;align=center;verticalAlign=middle;resizable=0;points=[];" vertex="1" connectable="0" parent="CPtMA0ndq-gtlwL2n12L-52">
          <mxGeometry x="-0.9895" y="1" relative="1" as="geometry">
            <mxPoint x="-24" y="1" as="offset" />
          </mxGeometry>
        </mxCell>
        <mxCell id="CPtMA0ndq-gtlwL2n12L-53" value="" style="ellipse;whiteSpace=wrap;html=1;aspect=fixed;" vertex="1" parent="1">
          <mxGeometry x="675" y="220" width="10" height="10" as="geometry" />
        </mxCell>
        <mxCell id="CPtMA0ndq-gtlwL2n12L-54" value="" style="ellipse;whiteSpace=wrap;html=1;aspect=fixed;" vertex="1" parent="1">
          <mxGeometry x="675" y="340" width="10" height="10" as="geometry" />
        </mxCell>
        <mxCell id="CPtMA0ndq-gtlwL2n12L-56" value="" style="endArrow=none;html=1;rounded=0;entryX=0.5;entryY=1;entryDx=0;entryDy=0;strokeColor=#FF6666;" edge="1" parent="1" target="CPtMA0ndq-gtlwL2n12L-54">
          <mxGeometry width="50" height="50" relative="1" as="geometry">
            <mxPoint x="620" y="360" as="sourcePoint" />
            <mxPoint x="680" y="360" as="targetPoint" />
            <Array as="points">
              <mxPoint x="680" y="360" />
            </Array>
          </mxGeometry>
        </mxCell>
        <mxCell id="CPtMA0ndq-gtlwL2n12L-58" value="" style="endArrow=none;html=1;rounded=0;entryX=0;entryY=0.25;entryDx=0;entryDy=0;fillColor=#ffe6cc;strokeColor=#d79b00;" edge="1" parent="1">
          <mxGeometry width="50" height="50" relative="1" as="geometry">
            <mxPoint x="80" y="90" as="sourcePoint" />
            <mxPoint x="160" y="90" as="targetPoint" />
          </mxGeometry>
        </mxCell>
        <mxCell id="CPtMA0ndq-gtlwL2n12L-59" value="" style="endArrow=none;html=1;rounded=0;entryX=0;entryY=0.75;entryDx=0;entryDy=0;fillColor=#dae8fc;strokeColor=#6c8ebf;" edge="1" parent="1">
          <mxGeometry width="50" height="50" relative="1" as="geometry">
            <mxPoint x="80" y="110" as="sourcePoint" />
            <mxPoint x="170" y="110" as="targetPoint" />
          </mxGeometry>
        </mxCell>
        <mxCell id="CPtMA0ndq-gtlwL2n12L-89" value="i_argB" style="edgeLabel;html=1;align=center;verticalAlign=middle;resizable=0;points=[];" vertex="1" connectable="0" parent="CPtMA0ndq-gtlwL2n12L-59">
          <mxGeometry x="-0.9378" y="1" relative="1" as="geometry">
            <mxPoint x="-23" as="offset" />
          </mxGeometry>
        </mxCell>
        <mxCell id="CPtMA0ndq-gtlwL2n12L-63" value="" style="endArrow=none;html=1;rounded=0;exitX=1;exitY=0.5;exitDx=0;exitDy=0;" edge="1" parent="1" source="CPtMA0ndq-gtlwL2n12L-43">
          <mxGeometry width="50" height="50" relative="1" as="geometry">
            <mxPoint x="720" y="260" as="sourcePoint" />
            <mxPoint x="780" y="280" as="targetPoint" />
          </mxGeometry>
        </mxCell>
        <mxCell id="CPtMA0ndq-gtlwL2n12L-92" value="o_status" style="edgeLabel;html=1;align=center;verticalAlign=middle;resizable=0;points=[];" vertex="1" connectable="0" parent="CPtMA0ndq-gtlwL2n12L-63">
          <mxGeometry x="0.8279" y="-1" relative="1" as="geometry">
            <mxPoint x="36" y="-1" as="offset" />
          </mxGeometry>
        </mxCell>
        <mxCell id="CPtMA0ndq-gtlwL2n12L-64" value="" style="endArrow=none;html=1;rounded=0;exitX=1;exitY=0.5;exitDx=0;exitDy=0;fillColor=#0050ef;strokeColor=#001DBC;" edge="1" parent="1">
          <mxGeometry width="50" height="50" relative="1" as="geometry">
            <mxPoint x="710" y="159.88" as="sourcePoint" />
            <mxPoint x="780" y="159.88" as="targetPoint" />
          </mxGeometry>
        </mxCell>
        <mxCell id="CPtMA0ndq-gtlwL2n12L-91" value="o_result" style="edgeLabel;html=1;align=center;verticalAlign=middle;resizable=0;points=[];" vertex="1" connectable="0" parent="CPtMA0ndq-gtlwL2n12L-64">
          <mxGeometry x="0.7582" y="1" relative="1" as="geometry">
            <mxPoint x="39" as="offset" />
          </mxGeometry>
        </mxCell>
        <mxCell id="CPtMA0ndq-gtlwL2n12L-65" value="" style="endArrow=none;html=1;rounded=0;entryX=-0.019;entryY=0.213;entryDx=0;entryDy=0;entryPerimeter=0;fillColor=#0050ef;strokeColor=#001DBC;" edge="1" parent="1" target="CPtMA0ndq-gtlwL2n12L-46">
          <mxGeometry width="50" height="50" relative="1" as="geometry">
            <mxPoint x="740" y="160" as="sourcePoint" />
            <mxPoint x="400" y="280" as="targetPoint" />
            <Array as="points">
              <mxPoint x="740" y="100" />
              <mxPoint x="560" y="100" />
              <mxPoint x="560" y="250" />
              <mxPoint x="400" y="250" />
              <mxPoint x="400" y="280" />
            </Array>
          </mxGeometry>
        </mxCell>
        <mxCell id="CPtMA0ndq-gtlwL2n12L-67" value="" style="endArrow=none;html=1;rounded=0;exitX=0.5;exitY=0;exitDx=0;exitDy=0;" edge="1" parent="1" source="CPtMA0ndq-gtlwL2n12L-5">
          <mxGeometry width="50" height="50" relative="1" as="geometry">
            <mxPoint x="300" y="130" as="sourcePoint" />
            <mxPoint x="80" y="60" as="targetPoint" />
            <Array as="points">
              <mxPoint x="470" y="60" />
            </Array>
          </mxGeometry>
        </mxCell>
        <mxCell id="CPtMA0ndq-gtlwL2n12L-90" value="i_oper" style="edgeLabel;html=1;align=center;verticalAlign=middle;resizable=0;points=[];" vertex="1" connectable="0" parent="CPtMA0ndq-gtlwL2n12L-67">
          <mxGeometry x="0.9581" relative="1" as="geometry">
            <mxPoint x="-29" as="offset" />
          </mxGeometry>
        </mxCell>
        <mxCell id="CPtMA0ndq-gtlwL2n12L-81" value="&lt;font style=&quot;font-size: 16px;&quot;&gt;exe_unit_w26&lt;/font&gt;" style="text;html=1;strokeColor=none;fillColor=none;align=center;verticalAlign=middle;whiteSpace=wrap;rounded=0;" vertex="1" parent="1">
          <mxGeometry x="640" y="30" width="120" height="60" as="geometry" />
        </mxCell>
        <mxCell id="CPtMA0ndq-gtlwL2n12L-82" value="i_clk" style="text;html=1;strokeColor=none;fillColor=none;align=center;verticalAlign=middle;whiteSpace=wrap;rounded=0;" vertex="1" parent="1">
          <mxGeometry x="45" y="370" width="30" height="10" as="geometry" />
        </mxCell>
        <mxCell id="CPtMA0ndq-gtlwL2n12L-88" value="i_argA" style="text;html=1;strokeColor=none;fillColor=none;align=center;verticalAlign=middle;whiteSpace=wrap;rounded=0;" vertex="1" parent="1">
          <mxGeometry x="40" y="80" width="40" height="20" as="geometry" />
        </mxCell>
        <mxCell id="CPtMA0ndq-gtlwL2n12L-93" value="" style="rounded=0;whiteSpace=wrap;html=1;fillColor=none;dashed=1;" vertex="1" parent="1">
          <mxGeometry x="100" y="40" width="660" height="370" as="geometry" />
        </mxCell>
      </root>
    </mxGraphModel>
  </diagram>
</mxfile>
